<?xml version="1.0" encoding="UTF-8" standalone="no"?>
<!-- Created with Inkscape (http://www.inkscape.org/) -->

<svg
   xmlns:dc="http://purl.org/dc/elements/1.1/"
   xmlns:cc="http://creativecommons.org/ns#"
   xmlns:rdf="http://www.w3.org/1999/02/22-rdf-syntax-ns#"
   xmlns:svg="http://www.w3.org/2000/svg"
   xmlns="http://www.w3.org/2000/svg"
   xmlns:xlink="http://www.w3.org/1999/xlink"
   xmlns:sodipodi="http://sodipodi.sourceforge.net/DTD/sodipodi-0.dtd"
   xmlns:inkscape="http://www.inkscape.org/namespaces/inkscape"
   width="243.77144"
   height="243.77144"
   viewbox = "0 0 244 244"
   id="svg2"
   version="1.1"
   inkscape:version="0.48.2 r9819"
   sodipodi:docname="bsm.svg">
  <defs
     id="defs4" />
  <sodipodi:namedview
     id="base"
     pagecolor="#ffffff"
     bordercolor="#666666"
     borderopacity="1.0"
     inkscape:pageopacity="0.0"
     inkscape:pageshadow="2"
     inkscape:zoom="0.98994949"
     inkscape:cx="-83.000289"
     inkscape:cy="123.23244"
     inkscape:document-units="px"
     inkscape:current-layer="layer1"
     showgrid="false"
     inkscape:window-width="1633"
     inkscape:window-height="1001"
     inkscape:window-x="0"
     inkscape:window-y="0"
     inkscape:window-maximized="0"
     fit-margin-top="0"
     fit-margin-left="0"
     fit-margin-right="0"
     fit-margin-bottom="0" />
  <metadata
     id="metadata7">
    <rdf:RDF>
      <cc:Work
         rdf:about="">
        <dc:format>image/svg+xml</dc:format>
        <dc:type
           rdf:resource="http://purl.org/dc/dcmitype/StillImage" />
        <dc:title></dc:title>
      </cc:Work>
    </rdf:RDF>
  </metadata>
  <g
     inkscape:label="Layer 1"
     inkscape:groupmode="layer"
     id="layer1"
     style="display:inline"
     transform="translate(-10.828573,-7.7621705)">
    <path
       sodipodi:type="arc"
       style="fill:#2980b9;fill-opacity:1;stroke:none"
       id="path3815"
       sodipodi:cx="430.71429"
       sodipodi:cy="431.64789"
       sodipodi:rx="169.28572"
       sodipodi:ry="169.28572"
       d="m 600.00002,431.64789 c 0,93.49392 -75.7918,169.28572 -169.28573,169.28572 -93.49392,0 -169.28572,-75.7918 -169.28572,-169.28572 0,-93.49392 75.7918,-169.28572 169.28572,-169.28572 93.49393,0 169.28573,75.7918 169.28573,169.28572 z"
       transform="matrix(0.72,0,0,0.72,-177.4,-181.13859)" />
    <path
       id="path3756"
       style="fill:none;stroke:#000000;stroke-width:8;stroke-linecap:butt;stroke-linejoin:miter;stroke-miterlimit:4;stroke-opacity:1;stroke-dasharray:none"
       d="m 170.05773,200.43352 -43.12916,24.90063 -43.12916,-24.90063 0,-49.80126 43.12916,-24.90064 43.12916,24.90064 z"
       inkscape:connector-curvature="0" />
    <path
       style="fill:none;stroke:#000000;stroke-width:8;stroke-linecap:butt;stroke-linejoin:miter;stroke-miterlimit:4;stroke-opacity:1;stroke-dasharray:none"
       d="m 170.9375,51.71875 -43.125,24.90625 0,49.8125 43.125,24.90625 7.8125,-4.5 -2.03125,-91.78125 -5.78125,-3.34375 z"
       id="use3839"
       inkscape:connector-curvature="0" />
    <path
       style="fill:none;stroke:#000000;stroke-width:8;stroke-linecap:butt;stroke-linejoin:miter;stroke-miterlimit:4;stroke-opacity:1;stroke-dasharray:none"
       d="m 170.0625,47.15625 -86.25,1 0,4.28125 43.125,24.90625 43.125,-24.90625 0,-5.28125 z"
       id="use3841"
       inkscape:connector-curvature="0" />
    <path
       style="fill:#3080b9;fill-opacity:1;stroke:none"
       d="m 188.60827,48.81089 -16.80431,0.72253 -4.62847,12.02061 0.45729,82.85464 4.85482,12.71757 16.41179,-4.24701 z"
       id="path3879"
       inkscape:connector-curvature="0"
       sodipodi:nodetypes="ccccccc" />
    <path
       style="fill:#3080ba;fill-opacity:1;stroke:none"
       d="M 71.43156,55.69956 189.61941,52.16403 189.11433,34.48636 64.36049,37.51682 z"
       id="path3881"
       inkscape:connector-curvature="0" />
    <path
       sodipodi:type="arc"
       style="fill:#d6dbdf;fill-opacity:1;fill-rule:nonzero;stroke:none"
       id="path3885"
       sodipodi:cx="352.14285"
       sodipodi:cy="350.21933"
       sodipodi:rx="20"
       sodipodi:ry="20"
       d="m 372.14285,350.21933 c 0,11.04569 -8.9543,20 -20,20 -11.04569,0 -20,-8.95431 -20,-20 0,-11.0457 8.95431,-20 20,-20 11.0457,0 20,8.9543 20,20 z"
       transform="matrix(0.74285715,0,0,0.74285715,-178.23469,-210.72931)" />
    <use
       x="0"
       y="0"
       xlink:href="#path3885"
       id="use3887"
       transform="translate(90,0)"
       width="744.09448"
       height="1052.3622" />
    <path
       style="fill:none;stroke:#000000;stroke-width:8;stroke-linecap:butt;stroke-linejoin:miter;stroke-miterlimit:4;stroke-opacity:1;stroke-dasharray:none"
       d="m 174.71429,150.36218 27.85714,-20 0,0 z"
       id="path3903"
       inkscape:connector-curvature="0" />
    <path
       transform="matrix(0.74285715,0,0,0.74285715,-92.23469,-108.72931)"
       d="m 372.14285,350.21933 c 0,11.04569 -8.9543,20 -20,20 -11.04569,0 -20,-8.95431 -20,-20 0,-11.0457 8.95431,-20 20,-20 11.0457,0 20,8.9543 20,20 z"
       sodipodi:ry="20"
       sodipodi:rx="20"
       sodipodi:cy="350.21933"
       sodipodi:cx="352.14285"
       id="use3889"
       style="fill:#e44d41;fill-opacity:1;fill-rule:nonzero;stroke:none"
       sodipodi:type="arc" />
    <use
       x="0"
       y="0"
       xlink:href="#path3885"
       id="use3891"
       transform="translate(86,152)"
       width="744.09448"
       height="1052.3622" />
    <use
       height="1052.3622"
       width="744.09448"
       transform="translate(46,170)"
       id="use3893"
       xlink:href="#path3885"
       y="0"
       x="0" />
    <use
       x="0"
       y="0"
       xlink:href="#path3885"
       id="use3895"
       transform="translate(2,152)"
       width="744.09448"
       height="1052.3622" />
    <use
       height="1052.3622"
       width="744.09448"
       transform="translate(0,102)"
       id="use3897"
       xlink:href="#path3885"
       y="0"
       x="0" />
    <path
       transform="matrix(0.74285715,0,0,0.74285715,-134.23469,-130.72931)"
       d="m 372.14285,350.21933 c 0,11.04569 -8.9543,20 -20,20 -11.04569,0 -20,-8.95431 -20,-20 0,-11.0457 8.95431,-20 20,-20 11.0457,0 20,8.9543 20,20 z"
       sodipodi:ry="20"
       sodipodi:rx="20"
       sodipodi:cy="350.21933"
       sodipodi:cx="352.14285"
       id="use3899"
       style="fill:#e44d41;fill-opacity:1;fill-rule:nonzero;stroke:none"
       sodipodi:type="arc" />
    <path
       transform="matrix(0.74285715,0,0,0.74285715,-134.23469,-184.72931)"
       d="m 372.14285,350.21933 c 0,11.04569 -8.9543,20 -20,20 -11.04569,0 -20,-8.95431 -20,-20 0,-11.0457 8.95431,-20 20,-20 11.0457,0 20,8.9543 20,20 z"
       sodipodi:ry="20"
       sodipodi:rx="20"
       sodipodi:cy="350.21933"
       sodipodi:cx="352.14285"
       id="use3901"
       style="fill:#e44d41;fill-opacity:1;fill-rule:nonzero;stroke:none"
       sodipodi:type="arc" />
    <path
       transform="matrix(0.74285715,0,0,0.74285715,-54.23469,-130.72931)"
       d="m 372.14285,350.21933 c 0,11.04569 -8.9543,20 -20,20 -11.04569,0 -20,-8.95431 -20,-20 0,-11.0457 8.95431,-20 20,-20 11.0457,0 20,8.9543 20,20 z"
       sodipodi:ry="20"
       sodipodi:rx="20"
       sodipodi:cy="350.21933"
       sodipodi:cx="352.14285"
       id="path3905"
       style="fill:#d6dbdf;fill-opacity:1;fill-rule:nonzero;stroke:none"
       sodipodi:type="arc" />
  </g>
</svg>
