<?xml version="1.0" encoding="utf-8"?>
<!-- Generator: Adobe Illustrator 18.1.1, SVG Export Plug-In . SVG Version: 6.00 Build 0)  -->
<!DOCTYPE svg PUBLIC "-//W3C//DTD SVG 1.1//EN" "http://www.w3.org/Graphics/SVG/1.1/DTD/svg11.dtd">
<svg version="1.1" id="Layer_1" xmlns="http://www.w3.org/2000/svg" xmlns:xlink="http://www.w3.org/1999/xlink" x="0px" y="0px"
	 viewBox="0 0 80 80" enable-background="new 0 0 80 80" xml:space="preserve">
<circle fill="#1ABC9C" cx="39.8" cy="40.2" r="38.2"/>
<path fill="none" d="M-15,17h80v80h-80V17z"/>
<path fill="#FFFFFF" d="M47.4,15.5c2.4,0,4.4-2,4.4-4.4s-2-4.4-4.4-4.4s-4.4,2-4.4,4.4S45,15.5,47.4,15.5z M47.7,30.6h12v-4.4h-8.8
	L46,18.1c-0.7-1.2-2.1-2.1-3.5-2.1c-0.4,0-0.9,0.1-1.2,0.1l-13.3,4.3v12.7h4.4v-8.9l5.1-1.6l-9.5,37.3h4.4l7-19.8l5.7,7.6v12.2h4.4
	V44.3l-6.1-11.1l1.8-7C45.1,26.3,47.7,30.6,47.7,30.6z"/>
<text transform="matrix(1 0 0 1 24.466 70.2812)" fill="#FFFFFF" font-family="'Helvetica'" font-size="10.1426">TOUR</text>
</svg>
