<?xml version="1.0" encoding="UTF-8" standalone="no"?>
<!-- Created with Inkscape (http://www.inkscape.org/) -->

<svg
   xmlns:dc="http://purl.org/dc/elements/1.1/"
   xmlns:cc="http://creativecommons.org/ns#"
   xmlns:rdf="http://www.w3.org/1999/02/22-rdf-syntax-ns#"
   xmlns:svg="http://www.w3.org/2000/svg"
   xmlns="http://www.w3.org/2000/svg"
   xmlns:sodipodi="http://sodipodi.sourceforge.net/DTD/sodipodi-0.dtd"
   xmlns:inkscape="http://www.inkscape.org/namespaces/inkscape"
   version="1.1"
   viewbox="0 0 100 100"
   id="svg2"
   xml:space="preserve"
   inkscape:version="0.48.2 r9819"
   sodipodi:docname="nrs.svg"
   width="106.78757"
   height="101.98557"><sodipodi:namedview
     pagecolor="#ffffff"
     bordercolor="#666666"
     borderopacity="1"
     objecttolerance="10"
     gridtolerance="10"
     guidetolerance="10"
     inkscape:pageopacity="0"
     inkscape:pageshadow="2"
     inkscape:window-width="1431"
     inkscape:window-height="821"
     id="namedview70"
     showgrid="false"
     inkscape:showpageshadow="false"
     fit-margin-top="0"
     fit-margin-left="0"
     fit-margin-right="0"
     fit-margin-bottom="0"
     inkscape:zoom="4.3731678"
     inkscape:cx="38.380647"
     inkscape:cy="43.39508"
     inkscape:window-x="0"
     inkscape:window-y="0"
     inkscape:window-maximized="0"
     inkscape:current-layer="svg2" /><metadata
     id="metadata8"><rdf:RDF><cc:Work
         rdf:about=""><dc:format>image/svg+xml</dc:format><dc:type
           rdf:resource="http://purl.org/dc/dcmitype/StillImage" /></cc:Work></rdf:RDF></metadata><defs
     id="defs6"><clipPath
       id="clipPath18"><path
         d="M 0,849.945 0,0 l 3642.63,0 0,849.945 -3642.63,0 z"
         inkscape:connector-curvature="0"
         id="path20" /></clipPath><clipPath
       clipPathUnits="userSpaceOnUse"
       id="clipPath3051"><rect
         style="fill:#0000ff;fill-rule:evenodd;stroke:#000000;stroke-width:0.80000001px;stroke-linecap:butt;stroke-linejoin:miter;stroke-opacity:1"
         id="rect3053"
         width="86.344742"
         height="85.247124"
         x="0"
         y="-85.064209"
         transform="scale(1,-1)" /></clipPath><clipPath
       clipPathUnits="userSpaceOnUse"
       id="clipPath3050"><rect
         style="fill:#0000ff;fill-rule:evenodd;stroke:#000000;stroke-width:0.80000001px;stroke-linecap:butt;stroke-linejoin:miter;stroke-opacity:1"
         id="rect3052"
         width="85.430054"
         height="81.588455"
         x="0.3658675"
         y="-84.149521"
         transform="scale(1,-1)" /></clipPath></defs><g
     transform="matrix(1.25,0,0,-1.25,-0.45733437,105.1869)"
     id="g10"
     clip-path="url(#clipPath3050)"><g
       transform="scale(0.1,0.1)"
       id="g12"><g
         id="g14"><g
           clip-path="url(#clipPath18)"
           id="g16"><path
             d="M 859.758,417.816 C 859.758,250.984 764.211,106.453 624.848,35.9844 566.934,6.6875 473.938,343.484 404.605,343.484 340.445,343.484 307.109,4.31641 252.488,29.6367 106.062,97.5273 4.5,245.809 4.5,417.816 c 0,236.172 191.457,427.629 427.625,427.629 236.172,0 427.633,-191.457 427.633,-427.629"
             inkscape:connector-curvature="0"
             id="path22"
             style="fill:#236f98;fill-opacity:1;fill-rule:nonzero;stroke:none" /><path
             d="M 859.758,417.816 C 859.758,250.984 764.211,106.453 624.848,35.9844 566.934,6.6875 473.938,343.484 404.605,343.484 340.445,343.484 307.109,4.31641 252.488,29.6367 106.062,97.5273 4.5,245.809 4.5,417.816 c 0,236.172 191.457,427.629 427.625,427.629 236.172,0 427.633,-191.457 427.633,-427.629 z"
             inkscape:connector-curvature="0"
             id="path24"
             style="fill:none;stroke:#ffffff;stroke-width:9.00273991;stroke-linecap:butt;stroke-linejoin:miter;stroke-miterlimit:4;stroke-opacity:1;stroke-dasharray:none" /><path
             d="M 831.973,397.637 C 831.973,178.035 653.953,0 434.34,0 214.73,0 36.7148,178.035 36.7148,397.637 c 0,219.597 178.0152,397.621 397.6252,397.621 219.613,0 397.633,-178.024 397.633,-397.621"
             inkscape:connector-curvature="0"
             id="path26"
             style="fill:#ffffff;fill-opacity:1;fill-rule:nonzero;stroke:none" /><path
             d="m 474.844,264.758 -94.301,-54.438 -94.297,54.438 0,108.894 94.297,54.438 94.301,-54.438 0,-108.894"
             inkscape:connector-curvature="0"
             id="path28"
             style="fill:#5db874;fill-opacity:1;fill-rule:nonzero;stroke:none" /><path
             d="m 474.844,264.758 -94.301,-54.438 -94.297,54.438 0,108.894 94.297,54.438 94.301,-54.438 0,-108.894 z"
             inkscape:connector-curvature="0"
             id="path30"
             style="fill:none;stroke:#ffffff;stroke-width:11.9066;stroke-linecap:butt;stroke-linejoin:miter;stroke-miterlimit:4;stroke-opacity:1;stroke-dasharray:none" /><path
             d="m 286.246,264.758 -94.312,-54.438 -94.2973,54.438 0,108.894 94.2973,54.438 94.312,-54.438 0,-108.894"
             inkscape:connector-curvature="0"
             id="path32"
             style="fill:#5db874;fill-opacity:1;fill-rule:nonzero;stroke:none" /><path
             d="m 286.246,264.758 -94.312,-54.438 -94.2973,54.438 0,108.894 94.2973,54.438 94.312,-54.438 0,-108.894 z"
             inkscape:connector-curvature="0"
             id="path34"
             style="fill:none;stroke:#ffffff;stroke-width:11.9066;stroke-linecap:butt;stroke-linejoin:miter;stroke-miterlimit:4;stroke-opacity:1;stroke-dasharray:none" /><path
             d="m 569.148,428.102 -94.304,-54.45 -94.297,54.45 0,108.886 94.297,54.453 94.304,-54.453 0,-108.886"
             inkscape:connector-curvature="0"
             id="path36"
             style="fill:#5db874;fill-opacity:1;fill-rule:nonzero;stroke:none" /><path
             d="m 569.148,428.102 -94.304,-54.45 -94.297,54.45 0,108.886 94.297,54.453 94.304,-54.453 0,-108.886 z"
             inkscape:connector-curvature="0"
             id="path38"
             style="fill:none;stroke:#ffffff;stroke-width:11.9066;stroke-linecap:butt;stroke-linejoin:miter;stroke-miterlimit:4;stroke-opacity:1;stroke-dasharray:none" /><path
             d="m 569.148,428.102 0,108.886 94.305,54.453 94.317,-54.453 0,-108.886 -188.622,0"
             inkscape:connector-curvature="0"
             id="path40"
             style="fill:#5db874;fill-opacity:1;fill-rule:nonzero;stroke:none" /><path
             d="m 569.148,428.102 0,108.886 94.305,54.453 94.317,-54.453 0,-108.886 -188.622,0 z"
             inkscape:connector-curvature="0"
             id="path42"
             style="fill:none;stroke:#ffffff;stroke-width:11.9066;stroke-linecap:butt;stroke-linejoin:miter;stroke-miterlimit:4;stroke-opacity:1;stroke-dasharray:none" /><path
             d="m 695.508,135.508 c -144.863,-144.86347 -379.742,-144.86347 -524.61,0 -144.8668,144.863 -144.8668,379.746 0,524.613"
             inkscape:connector-curvature="0"
             id="path44"
             style="fill:none;stroke:#aeacac;stroke-width:2.33545995;stroke-linecap:butt;stroke-linejoin:miter;stroke-miterlimit:4;stroke-opacity:1;stroke-dasharray:none" /><path
             d="M 695.508,135.508 C 661.02,101.016 515.613,190.496 370.746,335.352 225.879,480.223 136.406,625.629 170.898,660.121"
             inkscape:connector-curvature="0"
             id="path46"
             style="fill:none;stroke:#aeacac;stroke-width:2.33545995;stroke-linecap:butt;stroke-linejoin:miter;stroke-miterlimit:4;stroke-opacity:1;stroke-dasharray:none" /><path
             d="m 695.508,135.508 c -144.863,-144.86347 -379.742,-144.86347 -524.61,0 -144.8668,144.863 -144.8668,379.746 0,524.613"
             inkscape:connector-curvature="0"
             id="path48"
             style="fill:none;stroke:#aeacac;stroke-width:2.33545995;stroke-linecap:butt;stroke-linejoin:miter;stroke-miterlimit:4;stroke-opacity:1;stroke-dasharray:none" /><path
             d="M 695.508,135.508 C 585.137,25.1367 378.219,53.0938 233.352,197.969 88.4805,342.82 60.5195,549.746 170.898,660.121"
             inkscape:connector-curvature="0"
             id="path50"
             style="fill:none;stroke:#aeacac;stroke-width:2.33545995;stroke-linecap:butt;stroke-linejoin:miter;stroke-miterlimit:4;stroke-opacity:1;stroke-dasharray:none" /><path
             d="M 695.508,135.508 C 805.883,245.879 777.926,452.797 633.062,597.672 488.188,742.535 281.27,770.496 170.898,660.121"
             inkscape:connector-curvature="0"
             id="path52"
             style="fill:none;stroke:#aeacac;stroke-width:2.33545995;stroke-linecap:butt;stroke-linejoin:miter;stroke-miterlimit:4;stroke-opacity:1;stroke-dasharray:none" /><path
             d="M 695.508,135.508 C 661.02,101.016 515.613,190.496 370.746,335.352 225.879,480.223 136.406,625.629 170.898,660.121"
             inkscape:connector-curvature="0"
             id="path54"
             style="fill:none;stroke:#aeacac;stroke-width:2.33545995;stroke-linecap:butt;stroke-linejoin:miter;stroke-miterlimit:4;stroke-opacity:1;stroke-dasharray:none" /><path
             d="m 695.508,135.508 c 144.875,144.863 144.875,379.75 0,524.621 -144.863,144.859 -379.742,144.859 -524.61,-0.008"
             inkscape:connector-curvature="0"
             id="path56"
             style="fill:none;stroke:#aeacac;stroke-width:2.33545995;stroke-linecap:butt;stroke-linejoin:miter;stroke-miterlimit:4;stroke-opacity:1;stroke-dasharray:none" /><path
             d="M 695.508,135.508 C 730.004,170.008 640.527,315.398 495.66,460.27 350.797,605.137 205.391,694.617 170.898,660.121"
             inkscape:connector-curvature="0"
             id="path58"
             style="fill:none;stroke:#aeacac;stroke-width:2.33545995;stroke-linecap:butt;stroke-linejoin:miter;stroke-miterlimit:4;stroke-opacity:1;stroke-dasharray:none" /><path
             d="M 695.508,660.129 C 730.004,625.629 640.527,480.223 495.66,335.352 350.793,190.496 205.391,101.016 170.898,135.508"
             inkscape:connector-curvature="0"
             id="path60"
             style="fill:none;stroke:#aeacac;stroke-width:2.33545995;stroke-linecap:butt;stroke-linejoin:miter;stroke-miterlimit:4;stroke-opacity:1;stroke-dasharray:none" /><path
             d="M 695.508,660.129 C 594.789,760.84 395.703,725.055 250.836,580.18 105.961,435.312 70.1758,236.23 170.895,135.508"
             inkscape:connector-curvature="0"
             id="path62"
             style="fill:none;stroke:#aeacac;stroke-width:2.33545995;stroke-linecap:butt;stroke-linejoin:miter;stroke-miterlimit:4;stroke-opacity:1;stroke-dasharray:none" /><path
             d="M 695.508,660.121 C 796.23,559.398 760.445,360.32 615.57,215.438 470.703,70.5742 271.609,34.7969 170.898,135.508"
             inkscape:connector-curvature="0"
             id="path64"
             style="fill:none;stroke:#aeacac;stroke-width:2.33545995;stroke-linecap:butt;stroke-linejoin:miter;stroke-miterlimit:4;stroke-opacity:1;stroke-dasharray:none" /><path
             d="M 695.508,660.129 C 661.02,694.617 515.613,605.137 370.746,460.27 225.879,315.398 136.406,170.008 170.898,135.508"
             inkscape:connector-curvature="0"
             id="path66"
             style="fill:none;stroke:#aeacac;stroke-width:2.33545995;stroke-linecap:butt;stroke-linejoin:miter;stroke-miterlimit:4;stroke-opacity:1;stroke-dasharray:none" /><path
             d="m 695.508,135.508 c -144.863,-144.86347 -379.742,-144.86347 -524.61,0 -144.8668,144.863 -144.8668,379.746 0,524.613"
             inkscape:connector-curvature="0"
             id="path68"
             style="fill:none;stroke:#236f98;stroke-width:0.93418002;stroke-linecap:butt;stroke-linejoin:miter;stroke-miterlimit:4;stroke-opacity:1;stroke-dasharray:none" /><path
             d="M 695.508,135.508 C 661.02,101.016 515.613,190.496 370.746,335.352 225.879,480.223 136.406,625.629 170.898,660.121"
             inkscape:connector-curvature="0"
             id="path70"
             style="fill:none;stroke:#236f98;stroke-width:0.93418002;stroke-linecap:butt;stroke-linejoin:miter;stroke-miterlimit:4;stroke-opacity:1;stroke-dasharray:none" /><path
             d="m 695.508,135.508 c -144.863,-144.86347 -379.742,-144.86347 -524.61,0 -144.8668,144.863 -144.8668,379.746 0,524.613"
             inkscape:connector-curvature="0"
             id="path72"
             style="fill:none;stroke:#236f98;stroke-width:0.93418002;stroke-linecap:butt;stroke-linejoin:miter;stroke-miterlimit:4;stroke-opacity:1;stroke-dasharray:none" /><path
             d="M 695.508,135.508 C 585.137,25.1367 378.219,53.0938 233.352,197.969 88.4805,342.82 60.5195,549.746 170.898,660.121"
             inkscape:connector-curvature="0"
             id="path74"
             style="fill:none;stroke:#236f98;stroke-width:0.93418002;stroke-linecap:butt;stroke-linejoin:miter;stroke-miterlimit:4;stroke-opacity:1;stroke-dasharray:none" /><path
             d="M 695.508,135.508 C 805.883,245.879 777.926,452.797 633.062,597.672 488.188,742.535 281.27,770.496 170.898,660.121"
             inkscape:connector-curvature="0"
             id="path76"
             style="fill:none;stroke:#236f98;stroke-width:0.93418002;stroke-linecap:butt;stroke-linejoin:miter;stroke-miterlimit:4;stroke-opacity:1;stroke-dasharray:none" /><path
             d="M 695.508,135.508 C 661.02,101.016 515.613,190.496 370.746,335.352 225.879,480.223 136.406,625.629 170.898,660.121"
             inkscape:connector-curvature="0"
             id="path78"
             style="fill:none;stroke:#236f98;stroke-width:0.93418002;stroke-linecap:butt;stroke-linejoin:miter;stroke-miterlimit:4;stroke-opacity:1;stroke-dasharray:none" /><path
             d="m 695.508,135.508 c 144.875,144.863 144.875,379.75 0,524.621 -144.863,144.859 -379.742,144.859 -524.61,-0.008"
             inkscape:connector-curvature="0"
             id="path80"
             style="fill:none;stroke:#236f98;stroke-width:0.93418002;stroke-linecap:butt;stroke-linejoin:miter;stroke-miterlimit:4;stroke-opacity:1;stroke-dasharray:none" /><path
             d="M 695.508,135.508 C 730.004,170.008 640.527,315.398 495.66,460.27 350.797,605.137 205.391,694.617 170.898,660.121"
             inkscape:connector-curvature="0"
             id="path82"
             style="fill:none;stroke:#236f98;stroke-width:0.93418002;stroke-linecap:butt;stroke-linejoin:miter;stroke-miterlimit:4;stroke-opacity:1;stroke-dasharray:none" /><path
             d="M 695.508,660.129 C 730.004,625.629 640.527,480.223 495.66,335.352 350.793,190.496 205.391,101.016 170.898,135.508"
             inkscape:connector-curvature="0"
             id="path84"
             style="fill:none;stroke:#236f98;stroke-width:0.93418002;stroke-linecap:butt;stroke-linejoin:miter;stroke-miterlimit:4;stroke-opacity:1;stroke-dasharray:none" /><path
             d="M 695.508,660.129 C 594.789,760.84 395.703,725.055 250.836,580.18 105.961,435.312 70.1758,236.23 170.895,135.508"
             inkscape:connector-curvature="0"
             id="path86"
             style="fill:none;stroke:#236f98;stroke-width:0.93418002;stroke-linecap:butt;stroke-linejoin:miter;stroke-miterlimit:4;stroke-opacity:1;stroke-dasharray:none" /><path
             d="M 695.508,660.121 C 796.23,559.398 760.445,360.32 615.57,215.438 470.703,70.5742 271.609,34.7969 170.898,135.508"
             inkscape:connector-curvature="0"
             id="path88"
             style="fill:none;stroke:#236f98;stroke-width:0.93418002;stroke-linecap:butt;stroke-linejoin:miter;stroke-miterlimit:4;stroke-opacity:1;stroke-dasharray:none" /><path
             d="M 695.508,660.129 C 661.02,694.617 515.613,605.137 370.746,460.27 225.879,315.398 136.406,170.008 170.898,135.508"
             inkscape:connector-curvature="0"
             id="path90"
             style="fill:none;stroke:#236f98;stroke-width:0.93418002;stroke-linecap:butt;stroke-linejoin:miter;stroke-miterlimit:4;stroke-opacity:1;stroke-dasharray:none" /><path
             d="m 1167.17,642.23 24.36,0 99.4,-171.918 0.56,0 0,171.918 19.32,0 0,-195.437 -26.04,0 -97.72,168.559 -0.56,0 0,-168.559 -19.32,0 0,195.437"
             inkscape:connector-curvature="0"
             id="path92"
             style="fill:#236f98;fill-opacity:1;fill-rule:nonzero;stroke:none" /><path
             d="m 1496.73,515.113 c 0,-57.683 -42.28,-71.679 -70.84,-71.679 -28.56,0 -70.84,13.996 -70.84,71.679 l 0,127.117 19.32,0 0,-127.117 c 0,-31.922 17.64,-54.879 51.52,-54.879 33.88,0 51.52,22.957 51.52,54.879 l 0,127.117 19.32,0 0,-127.117"
             inkscape:connector-curvature="0"
             id="path94"
             style="fill:#236f98;fill-opacity:1;fill-rule:nonzero;stroke:none" /><path
             d="m 1677.32,620.391 c -12.32,6.441 -29.96,8.398 -43.67,8.398 -50.69,0 -79.25,-35.84 -79.25,-84.277 0,-49.282 27.72,-84.278 79.25,-84.278 12.87,0 32.47,1.68 43.67,8.399 l 1.13,-16.801 c -10.64,-6.441 -32.48,-8.398 -44.8,-8.398 -61.6,0 -98.56,40.597 -98.56,101.078 0,59.359 38.07,101.078 98.56,101.078 11.48,0 34.71,-1.957 44.8,-7.281 l -1.13,-17.918"
             inkscape:connector-curvature="0"
             id="path96"
             style="fill:#236f98;fill-opacity:1;fill-rule:nonzero;stroke:none" /><path
             d="m 1728.29,642.23 19.31,0 0,-178.636 78.4,0 0,-16.801 -97.71,0 0,195.437"
             inkscape:connector-curvature="0"
             id="path98"
             style="fill:#236f98;fill-opacity:1;fill-rule:nonzero;stroke:none" /><path
             d="m 1854.28,642.23 95.76,0 0,-16.8 -76.44,0 0,-69.715 72.52,0 0,-16.805 -72.52,0 0,-75.316 79.8,0 0,-16.801 -99.12,0 0,195.437"
             inkscape:connector-curvature="0"
             id="path100"
             style="fill:#236f98;fill-opacity:1;fill-rule:nonzero;stroke:none" /><path
             d="m 2063.44,623.75 -42.56,-107.797 84.83,0 -42.27,107.797 z m -9.52,18.48 21.84,0 77.56,-195.437 -20.17,0 -20.99,52.355 -98.56,0 -20.99,-52.355 -18.77,0 80.08,195.437"
             inkscape:connector-curvature="0"
             id="path102"
             style="fill:#236f98;fill-opacity:1;fill-rule:nonzero;stroke:none" /><path
             d="m 2200.92,555.715 20.44,0 c 22.67,0 48.72,8.676 48.72,35.836 0,31.922 -22.69,33.879 -49.29,33.879 l -19.87,0 0,-69.715 z m -19.33,86.515 50.41,0 c 34.72,0 57.4,-14.839 57.4,-50.679 0,-25.199 -19.32,-42 -43.4,-45.082 l 0,-0.555 c 15.68,-1.965 19.04,-10.363 25.2,-23.523 l 33.32,-75.598 -21.29,0 -28.28,66.078 c -11.19,25.199 -19.59,26.039 -38.07,26.039 l -15.96,0 0,-92.117 -19.33,0 0,195.437"
             inkscape:connector-curvature="0"
             id="path104"
             style="fill:#236f98;fill-opacity:1;fill-rule:nonzero;stroke:none" /><path
             d="m 2434.42,555.715 20.45,0 c 22.68,0 48.71,8.676 48.71,35.836 0,31.922 -22.67,33.879 -49.27,33.879 l -19.89,0 0,-69.715 z m -19.31,86.515 50.41,0 c 34.7,0 57.4,-14.839 57.4,-50.679 0,-25.199 -19.34,-42 -43.4,-45.082 l 0,-0.555 c 15.67,-1.965 19.02,-10.363 25.2,-23.523 l 33.32,-75.598 -21.29,0 -28.28,66.078 c -11.19,25.199 -19.59,26.039 -38.07,26.039 l -15.98,0 0,-92.117 -19.31,0 0,195.437"
             inkscape:connector-curvature="0"
             id="path106"
             style="fill:#236f98;fill-opacity:1;fill-rule:nonzero;stroke:none" /><path
             d="m 2570.24,642.23 95.77,0 0,-16.8 -76.45,0 0,-69.715 72.52,0 0,-16.805 -72.52,0 0,-75.316 79.81,0 0,-16.801 -99.13,0 0,195.437"
             inkscape:connector-curvature="0"
             id="path108"
             style="fill:#236f98;fill-opacity:1;fill-rule:nonzero;stroke:none" /><path
             d="m 2844.37,620.391 c -12.33,6.441 -29.97,8.398 -43.7,8.398 -50.68,0 -79.23,-35.84 -79.23,-84.277 0,-49.282 27.71,-84.278 79.23,-84.278 12.89,0 32.48,1.68 43.7,8.399 l 1.11,-16.801 c -10.65,-6.441 -32.48,-8.398 -44.81,-8.398 -61.6,0 -98.55,40.597 -98.55,101.078 0,59.359 38.09,101.078 98.55,101.078 11.49,0 34.73,-1.957 44.81,-7.281 l -1.11,-17.918"
             inkscape:connector-curvature="0"
             id="path110"
             style="fill:#236f98;fill-opacity:1;fill-rule:nonzero;stroke:none" /><path
             d="m 2897,642.23 95.76,0 0,-16.8 -76.44,0 0,-69.715 72.52,0 0,-16.805 -72.52,0 0,-75.316 79.8,0 0,-16.801 -99.12,0 0,195.437"
             inkscape:connector-curvature="0"
             id="path112"
             style="fill:#236f98;fill-opacity:1;fill-rule:nonzero;stroke:none" /><path
             d="m 3056.32,548.148 13.44,0 c 29.12,0 56.56,3.364 56.56,38.645 0,24.637 -14.01,38.637 -38.65,38.637 l -31.35,0 0,-77.282 z m -19.32,94.082 48.15,0 c 36.68,0 60.48,-18.48 60.48,-55.437 0,-36.402 -27.44,-55.441 -62.44,-55.441 l -26.87,0 0,-84.559 -19.32,0 0,195.437"
             inkscape:connector-curvature="0"
             id="path114"
             style="fill:#236f98;fill-opacity:1;fill-rule:nonzero;stroke:none" /><path
             d="m 3213.39,625.43 -57.68,0 0,16.8 134.69,0 0,-16.8 -57.69,0 0,-178.637 -19.32,0 0,178.637"
             inkscape:connector-curvature="0"
             id="path116"
             style="fill:#236f98;fill-opacity:1;fill-rule:nonzero;stroke:none" /><path
             d="m 3327.35,544.512 c 0,-41.442 20.73,-84.278 66.64,-84.278 45.92,0 66.64,42.836 66.64,84.278 0,41.441 -20.72,84.277 -66.64,84.277 -45.91,0 -66.64,-42.836 -66.64,-84.277 z m 66.64,101.078 c 58.81,0 86.53,-48.16 85.96,-101.078 -0.57,-59.922 -29.67,-101.078 -85.96,-101.078 -56.27,0 -85.39,41.156 -85.95,101.078 -0.57,52.918 27.15,101.078 85.95,101.078"
             inkscape:connector-curvature="0"
             id="path118"
             style="fill:#236f98;fill-opacity:1;fill-rule:nonzero;stroke:none" /><path
             d="m 3539.03,555.715 20.45,0 c 22.68,0 48.71,8.676 48.71,35.836 0,31.922 -22.67,33.879 -49.27,33.879 l -19.89,0 0,-69.715 z m -19.31,86.515 50.39,0 c 34.72,0 57.4,-14.839 57.4,-50.679 0,-25.199 -19.32,-42 -43.4,-45.082 l 0,-0.555 c 15.68,-1.965 19.04,-10.363 25.2,-23.523 l 33.32,-75.598 -21.27,0 -28.28,66.078 c -11.21,25.199 -19.61,26.039 -38.09,26.039 l -15.96,0 0,-92.117 -19.31,0 0,195.437"
             inkscape:connector-curvature="0"
             id="path120"
             style="fill:#236f98;fill-opacity:1;fill-rule:nonzero;stroke:none" /><path
             d="m 1164.37,211.711 c 11.48,-7.277 24.92,-11.477 43.12,-11.477 24.08,0 43.96,12.317 43.96,40.039 0,38.36 -89.6,43.114 -89.6,94.356 0,31.355 27.44,50.965 61.88,50.965 9.52,0 24.92,-1.406 38.36,-6.446 l -3.08,-17.636 c -8.68,4.758 -22.4,7.277 -35.56,7.277 -20.16,0 -42.28,-8.398 -42.28,-33.605 0,-39.2 89.6,-39.469 89.6,-96.59 0,-39.485 -33.88,-55.168 -64.12,-55.168 -19.04,0 -33.88,3.926 -44.24,8.398 l 1.96,19.887"
             inkscape:connector-curvature="0"
             id="path122"
             style="fill:#236f98;fill-opacity:1;fill-rule:nonzero;stroke:none" /><path
             d="m 1307.17,186.785 19.3164,0 0,195.449 -19.3164,0 0,-195.449 z"
             inkscape:connector-curvature="0"
             id="path124"
             style="fill:#236f98;fill-opacity:1;fill-rule:nonzero;stroke:none" /><path
             d="m 1505.69,275.828 -45.36,0 0,16.801 64.68,0 0,-97.152 c -19.88,-8.692 -39.2,-12.051 -60.76,-12.051 -61.6,0 -98.56,40.605 -98.56,101.086 0,59.367 38.08,101.082 98.56,101.082 14.84,0 39.2,-2.52 52.36,-9.239 l -2.24,-17.929 c -15.12,8.398 -33.04,10.363 -50.12,10.363 -50.68,0 -79.24,-35.84 -79.24,-84.277 0,-49.289 27.72,-84.278 79.24,-84.278 12.04,0 32.2,1.399 41.44,7 l 0,68.594"
             inkscape:connector-curvature="0"
             id="path126"
             style="fill:#236f98;fill-opacity:1;fill-rule:nonzero;stroke:none" /><path
             d="m 1571.48,382.234 24.36,0 99.4,-171.922 0.57,0 0,171.922 19.32,0 0,-195.449 -26.04,0 -97.72,168.567 -0.56,0 0,-168.567 -19.33,0 0,195.449"
             inkscape:connector-curvature="0"
             id="path128"
             style="fill:#236f98;fill-opacity:1;fill-rule:nonzero;stroke:none" /><path
             d="m 1829.92,363.75 -42.56,-107.805 84.84,0 -42.28,107.805 z m -9.51,18.484 21.84,0 77.55,-195.449 -20.16,0 -21,52.363 -98.56,0 -20.99,-52.363 -18.77,0 80.09,195.449"
             inkscape:connector-curvature="0"
             id="path130"
             style="fill:#236f98;fill-opacity:1;fill-rule:nonzero;stroke:none" /><path
             d="m 1945.84,382.234 19.32,0 0,-178.64 78.4,0 0,-16.809 -97.72,0 0,195.449"
             inkscape:connector-curvature="0"
             id="path132"
             style="fill:#236f98;fill-opacity:1;fill-rule:nonzero;stroke:none" /><path
             d="m 2069.32,186.785 19.3203,0 0,195.449 -19.3203,0 0,-195.449 z"
             inkscape:connector-curvature="0"
             id="path134"
             style="fill:#236f98;fill-opacity:1;fill-rule:nonzero;stroke:none" /><path
             d="m 2131.47,382.234 24.36,0 99.4,-171.922 0.56,0 0,171.922 19.33,0 0,-195.449 -26.05,0 -97.71,168.567 -0.57,0 0,-168.567 -19.32,0 0,195.449"
             inkscape:connector-curvature="0"
             id="path136"
             style="fill:#236f98;fill-opacity:1;fill-rule:nonzero;stroke:none" /><path
             d="m 2454.6,275.828 -45.37,0 0,16.801 64.69,0 0,-97.152 c -19.89,-8.692 -39.2,-12.051 -60.77,-12.051 -61.6,0 -98.55,40.605 -98.55,101.086 0,59.367 38.07,101.082 98.55,101.082 14.85,0 39.2,-2.52 52.37,-9.239 l -2.25,-17.929 c -15.12,8.398 -33.05,10.363 -50.12,10.363 -50.68,0 -79.23,-35.84 -79.23,-84.277 0,-49.289 27.71,-84.278 79.23,-84.278 12.04,0 32.21,1.399 41.45,7 l 0,68.594"
             inkscape:connector-curvature="0"
             id="path138"
             style="fill:#236f98;fill-opacity:1;fill-rule:nonzero;stroke:none" /></g></g></g></g></svg>