<?xml version="1.0" encoding="UTF-8" standalone="no"?>
<svg
   xmlns:dc="http://purl.org/dc/elements/1.1/"
   xmlns:cc="http://creativecommons.org/ns#"
   xmlns:rdf="http://www.w3.org/1999/02/22-rdf-syntax-ns#"
   xmlns:svg="http://www.w3.org/2000/svg"
   xmlns="http://www.w3.org/2000/svg"
   xmlns:sodipodi="http://sodipodi.sourceforge.net/DTD/sodipodi-0.dtd"
   xmlns:inkscape="http://www.inkscape.org/namespaces/inkscape"
   width="200pt"
   height="300pt"
   viewBox="0 0 96 150"
   version="1.1"
   id="svg2"
   inkscape:version="0.48.2 r9819"
   sodipodi:docname="nursa-logo.svg">
  <metadata
     id="metadata74">
    <rdf:RDF>
      <cc:Work
         rdf:about="">
        <dc:format>image/svg+xml</dc:format>
        <dc:type
           rdf:resource="http://purl.org/dc/dcmitype/StillImage" />
      </cc:Work>
    </rdf:RDF>
  </metadata>
  <defs
     id="defs72" />
  <sodipodi:namedview
     pagecolor="#ffffff"
     bordercolor="#666666"
     borderopacity="1"
     objecttolerance="10"
     gridtolerance="10"
     guidetolerance="10"
     inkscape:pageopacity="0"
     inkscape:pageshadow="2"
     inkscape:window-width="1529"
     inkscape:window-height="828"
     id="namedview70"
     showgrid="false"
     inkscape:zoom="1.2586667"
     inkscape:cx="-15.625"
     inkscape:cy="187.5"
     inkscape:window-x="0"
     inkscape:window-y="0"
     inkscape:window-maximized="0"
     inkscape:current-layer="svg2" />
  <path
     fill="#ffffff"
     d=" M 0.00 0.00 L 96.00 0.00 L 96.00 150.00 L 0.00 150.00 L 0.00 0.00 Z"
     id="path4" />
  <path
     fill="#1f8aaa"
     d=" M 10.87 24.96 C 19.25 7.27 41.56 -1.38 59.99 4.15 C 71.33 7.49 81.01 16.01 85.69 26.87 C 89.63 35.56 91.26 45.85 87.80 54.96 C 87.44 56.00 86.80 56.83 85.86 57.45 C 85.55 51.85 85.90 46.23 85.62 40.62 C 85.38 32.28 80.62 24.85 74.96 19.04 C 65.78 9.79 51.68 5.42 39.00 9.00 C 23.09 13.18 9.43 28.12 9.77 45.07 C 10.13 50.85 11.17 56.60 12.61 62.20 C 12.87 62.97 13.14 63.74 13.43 64.50 C 13.00 64.45 12.16 64.36 11.74 64.32 C 4.07 52.68 4.91 37.14 10.87 24.96 Z"
     id="path6"
     style="fill:#2980b9;fill-opacity:1" />
  <path
     fill="#daecf0"
     d=" M 39.00 9.00 C 51.68 5.42 65.78 9.79 74.96 19.04 C 80.62 24.85 85.38 32.28 85.62 40.62 C 85.39 46.75 84.71 52.91 82.88 58.79 C 82.51 60.27 81.53 61.47 80.42 62.48 C 80.11 61.72 79.79 60.96 79.44 60.22 C 80.03 54.61 78.98 49.10 77.67 43.67 C 81.52 46.59 80.55 52.01 81.59 56.20 C 84.36 48.60 83.31 40.41 80.77 32.91 C 80.20 34.69 79.62 36.47 79.15 38.27 C 79.22 36.82 79.27 35.37 79.30 33.91 C 78.49 33.30 77.70 32.69 76.88 32.10 C 77.16 30.59 77.51 29.09 77.66 27.56 C 78.78 24.34 75.85 22.35 73.85 20.40 C 73.88 21.08 73.93 22.44 73.95 23.11 C 73.06 22.22 72.43 20.75 71.02 20.62 C 68.79 20.83 66.86 22.11 64.87 23.04 C 66.73 24.96 68.62 26.87 70.86 28.34 C 70.32 28.60 69.23 29.12 68.69 29.38 C 66.87 27.47 64.98 25.63 63.03 23.85 C 60.23 25.60 57.66 27.69 55.37 30.08 C 55.02 29.86 54.33 29.43 53.98 29.21 L 52.62 28.42 C 55.94 27.07 58.83 24.90 61.33 22.36 C 58.09 20.39 54.86 18.03 51.03 17.43 C 45.71 17.99 40.97 20.90 36.65 23.89 C 39.85 26.56 42.76 29.86 46.83 31.23 L 45.74 31.84 C 45.10 32.18 44.46 32.52 43.81 32.85 C 41.34 29.90 38.35 27.35 34.96 25.52 C 32.27 27.54 29.35 29.83 28.00 32.99 C 29.07 37.58 33.35 40.55 35.79 44.45 C 35.60 44.95 35.22 45.96 35.04 46.46 C 31.67 42.62 28.27 38.76 25.50 34.45 C 23.50 30.96 22.15 27.14 20.10 23.67 C 19.96 23.40 19.68 22.86 19.55 22.59 C 17.94 25.11 16.54 27.77 15.35 30.51 C 15.71 30.94 16.45 31.80 16.81 32.23 C 15.83 37.45 17.10 42.68 17.27 47.90 C 14.85 44.75 15.13 40.60 14.46 36.89 C 12.27 43.25 12.19 50.16 14.56 56.49 C 14.88 54.06 15.12 51.60 15.77 49.23 C 16.22 52.41 16.40 55.61 16.41 58.82 C 17.33 59.49 18.26 60.14 19.17 60.82 C 18.79 61.32 18.02 62.33 17.64 62.84 C 17.15 63.15 16.17 63.77 15.68 64.08 L 15.08 64.45 C 14.50 62.60 13.92 60.76 13.34 58.92 C 13.09 60.02 12.85 61.11 12.61 62.20 C 11.17 56.60 10.13 50.85 9.77 45.07 C 9.43 28.12 23.09 13.18 39.00 9.00 Z"
     id="path8" />
  <path
     fill="#ffffff"
     d=" M 37.86 12.40 C 42.14 11.46 46.52 10.04 50.95 10.83 C 54.41 11.34 57.77 12.38 61.05 13.55 C 56.86 14.04 52.62 15.15 48.39 14.45 C 44.86 13.85 41.37 13.07 37.86 12.40 Z"
     id="path10" />
  <path
     fill="#ffffff"
     d=" M 26.07 18.68 C 32.35 15.12 40.19 13.39 47.06 16.32 C 42.99 18.01 38.60 19.55 35.73 23.11 C 35.34 23.02 34.55 22.86 34.16 22.77 C 31.50 21.32 28.88 19.81 26.07 18.68 Z"
     id="path12" />
  <path
     fill="#ffffff"
     d=" M 54.70 16.00 C 59.95 15.15 65.15 16.56 69.98 18.55 C 67.79 19.68 65.54 20.69 63.25 21.61 C 60.37 19.79 57.45 18.02 54.70 16.00 Z"
     id="path14" />
  <path
     fill="#ffffff"
     d=" M 36.65 23.89 C 40.97 20.90 45.71 17.99 51.03 17.43 C 54.86 18.03 58.09 20.39 61.33 22.36 C 58.83 24.90 55.94 27.07 52.62 28.42 C 52.34 28.54 51.79 28.77 51.52 28.88 C 49.93 29.60 48.35 30.35 46.83 31.23 C 42.76 29.86 39.85 26.56 36.65 23.89 Z"
     id="path16" />
  <path
     fill="#8fc1d1"
     d=" M 22.08 22.67 C 19.64 23.45 21.60 19.49 22.43 21.93 L 22.08 22.67 Z"
     id="path18" />
  <path
     fill="#ffffff"
     d=" M 22.43 21.93 C 25.70 18.86 29.93 22.77 33.14 24.17 C 30.69 26.30 28.87 30.37 25.46 30.67 C 23.92 28.21 22.74 25.50 22.08 22.67 L 22.43 21.93 Z"
     id="path20" />
  <path
     fill="#ffffff"
     d=" M 64.87 23.04 C 66.86 22.11 68.79 20.83 71.02 20.62 C 72.43 20.75 73.06 22.22 73.95 23.11 C 73.97 23.47 74.01 24.17 74.03 24.52 C 74.50 24.47 75.44 24.36 75.91 24.31 C 76.50 25.38 77.09 26.47 77.66 27.56 C 77.51 29.09 77.16 30.59 76.88 32.10 C 74.92 30.77 72.87 29.60 70.86 28.34 C 68.62 26.87 66.73 24.96 64.87 23.04 Z"
     id="path22" />
  <path
     fill="#a4cbda"
     d=" M 73.85 20.40 C 75.85 22.35 78.78 24.34 77.66 27.56 C 77.09 26.47 76.50 25.38 75.91 24.31 C 75.44 24.36 74.50 24.47 74.03 24.52 C 74.01 24.17 73.97 23.47 73.95 23.11 C 73.93 22.44 73.88 21.08 73.85 20.40 Z"
     id="path24" />
  <path
     fill="#abd0dc"
     d=" M 19.55 22.59 C 19.68 22.86 19.96 23.40 20.10 23.67 C 18.87 26.47 17.53 29.24 16.81 32.23 C 16.45 31.80 15.71 30.94 15.35 30.51 C 16.54 27.77 17.94 25.11 19.55 22.59 Z"
     id="path26" />
  <path
     fill="#a7cadc"
     d=" M 34.16 22.77 C 34.55 22.86 35.34 23.02 35.73 23.11 C 37.59 25.82 32.11 25.23 34.16 22.77 Z"
     id="path28" />
  <path
     fill="#ffffff"
     d=" M 20.10 23.67 C 22.15 27.14 23.50 30.96 25.50 34.45 C 28.27 38.76 31.67 42.62 35.04 46.46 C 34.81 47.01 34.37 48.11 34.15 48.66 C 33.31 48.51 31.62 48.21 30.78 48.06 C 28.64 46.71 26.45 45.44 24.20 44.28 C 21.45 46.04 18.58 47.58 15.77 49.23 C 15.12 51.60 14.88 54.06 14.56 56.49 C 12.19 50.16 12.27 43.25 14.46 36.89 C 15.13 40.60 14.85 44.75 17.27 47.90 C 17.10 42.68 15.83 37.45 16.81 32.23 C 17.53 29.24 18.87 26.47 20.10 23.67 Z"
     id="path30" />
  <path
     fill="#ffffff"
     d=" M 55.37 30.08 C 57.66 27.69 60.23 25.60 63.03 23.85 C 64.98 25.63 66.87 27.47 68.69 29.38 C 66.18 30.61 63.84 32.14 61.56 33.75 C 61.70 36.72 61.93 39.69 62.27 42.65 C 67.72 42.73 73.17 42.71 78.63 42.71 C 78.79 41.23 78.96 39.75 79.15 38.27 C 79.62 36.47 80.20 34.69 80.77 32.91 C 83.31 40.41 84.36 48.60 81.59 56.20 C 80.55 52.01 81.52 46.59 77.67 43.67 C 78.98 49.10 80.03 54.61 79.44 60.22 C 79.50 60.95 79.63 62.39 79.69 63.11 C 78.18 65.47 76.82 67.92 75.44 70.35 C 74.14 66.35 71.30 62.67 71.33 58.35 C 70.24 58.02 69.17 57.62 68.08 57.29 C 66.33 54.38 64.21 51.72 62.03 49.13 C 61.58 47.42 60.92 45.54 59.22 44.70 C 59.14 44.60 58.96 44.41 58.88 44.31 C 61.78 41.46 60.25 37.10 60.63 33.51 C 58.88 32.37 57.13 31.21 55.37 30.08 Z"
     id="path32" />
  <path
     fill="#44c1a3"
     d=" M 46.83 31.23 C 48.35 30.35 49.93 29.60 51.52 28.88 C 50.22 31.01 48.61 33.63 45.74 31.84 L 46.83 31.23 Z"
     id="path34" />
  <path
     fill="#48b092"
     d=" M 51.52 28.88 C 51.79 28.77 52.34 28.54 52.62 28.42 L 53.98 29.21 C 52.57 31.11 51.15 32.99 49.74 34.89 C 52.70 38.11 55.93 41.07 58.88 44.31 C 58.96 44.41 59.14 44.60 59.22 44.70 L 58.71 44.94 C 58.21 45.05 57.22 45.25 56.72 45.35 C 55.25 43.27 53.81 41.04 51.57 39.69 L 50.22 39.35 C 47.86 38.21 45.31 36.89 43.16 39.40 C 43.23 37.20 43.28 34.99 43.81 32.85 C 44.46 32.52 45.10 32.18 45.74 31.84 C 48.61 33.63 50.22 31.01 51.52 28.88 Z"
     id="path36" />
  <path
     fill="#1abb9b"
     d=" M 68.69 29.38 C 69.23 29.12 70.32 28.60 70.86 28.34 C 72.87 29.60 74.92 30.77 76.88 32.10 C 77.70 32.69 78.49 33.30 79.30 33.91 C 79.27 35.37 79.22 36.82 79.15 38.27 C 78.96 39.75 78.79 41.23 78.63 42.71 C 73.17 42.71 67.72 42.73 62.27 42.65 C 61.93 39.69 61.70 36.72 61.56 33.75 C 63.84 32.14 66.18 30.61 68.69 29.38 Z"
     id="path38"
     style="fill:#1abc9c;fill-opacity:1" />
  <path
     fill="#1abc9c"
     d=" M 53.98 29.21 C 54.33 29.43 55.02 29.86 55.37 30.08 C 57.13 31.21 58.88 32.37 60.63 33.51 C 60.25 37.10 61.78 41.46 58.88 44.31 C 55.93 41.07 52.70 38.11 49.74 34.89 C 51.15 32.99 52.57 31.11 53.98 29.21 Z"
     id="path40" />
  <path
     fill="#2cbc9b"
     d=" M 51.57 39.69 C 53.81 41.04 55.25 43.27 56.72 45.35 C 56.07 45.67 54.76 46.30 54.10 46.62 C 53.01 44.09 51.61 41.72 50.22 39.35 L 51.57 39.69 Z"
     id="path42" />
  <path
     fill="#208bab"
     d=" M 46.33 40.04 C 51.32 41.66 53.46 46.74 54.70 51.38 C 56.64 49.65 58.58 47.92 60.55 46.22 L 57.49 46.14 C 57.79 45.84 58.40 45.24 58.71 44.94 L 59.22 44.70 C 60.92 45.54 61.58 47.42 62.03 49.13 C 64.21 51.72 66.33 54.38 68.08 57.29 C 69.17 57.62 70.24 58.02 71.33 58.35 C 71.30 62.67 74.14 66.35 75.44 70.35 C 76.82 67.92 78.18 65.47 79.69 63.11 C 79.63 62.39 79.50 60.95 79.44 60.22 C 79.79 60.96 80.11 61.72 80.42 62.48 C 79.01 66.05 76.57 69.05 74.39 72.17 C 74.92 68.75 73.23 65.65 72.02 62.57 C 71.29 62.16 69.83 61.33 69.10 60.91 C 68.98 61.22 68.75 61.82 68.63 62.13 C 67.57 62.74 66.62 63.73 65.32 63.77 C 66.69 62.51 68.67 61.28 68.70 59.22 C 66.75 54.54 63.21 50.79 59.72 47.21 C 58.05 48.75 56.33 50.23 54.53 51.63 C 54.71 58.46 54.49 65.29 54.58 72.12 C 56.92 74.61 59.28 77.10 61.27 79.89 C 62.10 83.86 62.94 87.88 62.54 91.97 C 61.38 104.24 58.08 116.19 54.52 127.96 C 53.01 132.89 51.31 137.92 48.11 142.04 C 46.44 144.24 43.76 145.57 41.00 145.56 C 34.32 145.67 27.63 145.49 20.95 145.61 C 15.66 145.70 10.40 146.83 5.09 146.42 C 7.88 142.97 12.34 142.05 16.17 140.27 C 20.35 138.54 24.42 136.31 28.93 135.60 C 32.11 135.71 35.16 136.75 38.23 137.52 C 39.82 129.53 41.23 121.45 43.82 113.71 C 45.06 110.00 48.74 107.95 50.43 104.53 C 51.31 102.08 49.76 99.51 48.02 97.86 C 44.34 94.34 38.49 95.47 34.55 92.39 C 33.02 91.24 32.29 89.38 31.37 87.77 C 33.35 88.32 35.31 88.93 37.26 89.58 C 37.33 84.39 38.96 79.25 42.11 75.11 C 45.84 70.09 49.59 64.55 49.70 58.05 C 50.35 51.79 46.91 46.16 46.33 40.04 Z"
     id="path44"
     style="fill:#2980b9;fill-opacity:1" />
  <path
     fill="#1abb9b"
     d=" M 15.77 49.23 C 18.58 47.58 21.45 46.04 24.20 44.28 C 26.45 45.44 28.64 46.71 30.78 48.06 C 31.22 48.37 32.08 48.98 32.52 49.29 C 32.49 52.60 32.56 55.91 32.64 59.22 C 32.29 59.40 31.57 59.76 31.22 59.94 C 28.98 61.10 26.79 62.35 24.63 63.64 C 22.97 62.84 21.31 62.05 19.69 61.19 L 19.17 60.82 C 18.26 60.14 17.33 59.49 16.41 58.82 C 16.40 55.61 16.22 52.41 15.77 49.23 Z"
     id="path46" />
  <path
     fill="#a7dbd1"
     d=" M 35.04 46.46 C 35.22 45.96 35.60 44.95 35.79 44.45 C 36.53 45.36 37.27 46.27 38.01 47.18 C 37.39 47.57 36.77 47.97 36.15 48.36 L 34.89 49.17 C 34.64 52.48 34.72 55.81 34.74 59.13 C 34.22 59.15 33.17 59.19 32.64 59.22 C 32.56 55.91 32.49 52.60 32.52 49.29 C 32.08 48.98 31.22 48.37 30.78 48.06 C 31.62 48.21 33.31 48.51 34.15 48.66 C 34.37 48.11 34.81 47.01 35.04 46.46 Z"
     id="path48" />
  <path
     fill="#19bc9c"
     d=" M 38.45 46.90 C 39.96 46.00 41.48 45.10 43.00 44.22 C 44.12 45.07 45.24 45.91 46.37 46.75 C 47.63 49.96 47.65 53.44 47.46 56.84 C 43.87 54.11 40.71 50.83 38.45 46.90 Z"
     id="path50" />
  <path
     fill="#53b698"
     d=" M 38.01 47.18 L 38.45 46.90 C 40.71 50.83 43.87 54.11 47.46 56.84 C 47.53 58.34 47.60 59.84 47.69 61.33 C 46.08 62.22 44.45 63.09 42.81 63.93 C 42.20 63.60 41.59 63.27 40.99 62.93 L 40.14 62.44 C 42.73 61.87 44.74 60.19 46.46 58.26 C 42.58 55.43 39.60 51.65 36.15 48.36 C 36.77 47.97 37.39 47.57 38.01 47.18 Z"
     id="path52" />
  <path
     fill="#1abc9c"
     d=" M 34.89 49.17 L 36.15 48.36 C 39.60 51.65 42.58 55.43 46.46 58.26 C 44.74 60.19 42.73 61.87 40.14 62.44 C 38.34 61.32 36.59 60.14 34.74 59.13 C 34.72 55.81 34.64 52.48 34.89 49.17 Z"
     id="path54" />
  <path
     fill="#46b093"
     d=" M 24.58 61.32 C 25.08 58.50 26.98 56.34 29.23 54.71 C 30.20 57.79 27.01 60.15 24.58 61.32 Z"
     id="path56" />
  <path
     fill="#ffffff"
     d=" M 31.22 59.94 C 31.57 59.76 32.29 59.40 32.64 59.22 C 33.17 59.19 34.22 59.15 34.74 59.13 C 36.59 60.14 38.34 61.32 40.14 62.44 L 40.99 62.93 C 38.59 65.32 35.87 67.34 32.95 69.03 C 30.99 67.49 29.10 65.85 27.32 64.11 C 28.60 62.70 29.87 61.28 31.22 59.94 Z"
     id="path58" />
  <path
     fill="#c8e3ea"
     d=" M 24.63 63.64 C 26.79 62.35 28.98 61.10 31.22 59.94 C 29.87 61.28 28.60 62.70 27.32 64.11 C 29.10 65.85 30.99 67.49 32.95 69.03 C 35.87 67.34 38.59 65.32 40.99 62.93 C 41.59 63.27 42.20 63.60 42.81 63.93 C 39.93 65.83 37.20 67.94 34.48 70.06 C 36.47 71.57 38.90 72.74 40.10 75.05 C 37.50 74.14 35.30 72.44 32.82 71.32 C 30.35 71.58 28.23 73.02 26.05 74.07 C 29.55 76.50 33.87 76.92 37.97 77.51 C 37.13 78.04 36.29 78.58 35.45 79.12 C 35.47 79.66 35.51 80.76 35.53 81.31 C 26.96 78.56 19.49 72.27 15.68 64.08 C 16.17 63.77 17.15 63.15 17.64 62.84 C 18.65 64.94 19.65 67.05 20.65 69.16 C 21.44 67.44 22.23 65.73 23.02 64.01 C 21.92 63.06 20.82 62.10 19.69 61.19 C 21.31 62.05 22.97 62.84 24.63 63.64 Z"
     id="path60" />
  <path
     fill="#f6fbfa"
     d=" M 17.64 62.84 C 18.02 62.33 18.79 61.32 19.17 60.82 L 19.69 61.19 C 20.82 62.10 21.92 63.06 23.02 64.01 C 22.23 65.73 21.44 67.44 20.65 69.16 C 19.65 67.05 18.65 64.94 17.64 62.84 Z"
     id="path62" />
  <path
     fill="#208bab"
     d=" M 58.29 62.47 C 62.70 60.81 65.98 67.20 63.41 70.59 C 62.61 73.38 59.89 74.04 57.52 72.58 C 56.69 69.28 55.80 65.31 58.29 62.47 Z"
     id="path64"
     style="fill:#2980b9;fill-opacity:1" />
  <path
     fill="#ffffff"
     d=" M 22.93 71.97 C 22.05 69.03 22.73 65.46 25.64 63.96 C 27.57 65.78 29.42 67.71 31.11 69.75 C 28.74 71.61 25.97 72.82 22.93 71.97 Z"
     id="path66" />
  <path
     fill="#208bab"
     d=" M 61.61 112.19 C 69.76 111.65 77.71 114.00 85.34 116.60 C 87.74 117.51 91.03 118.91 90.88 121.98 C 91.33 126.36 89.15 130.34 87.32 134.14 C 84.45 139.88 80.09 145.33 73.86 147.54 C 76.38 139.51 78.81 131.46 80.83 123.29 C 73.89 123.49 66.82 127.36 59.97 125.05 C 59.74 120.86 61.20 116.47 61.61 112.19 Z"
     id="path68"
     style="fill:#2980b9;fill-opacity:1" />
</svg>
