<?xml version="1.0" encoding="utf-8"?>
<!-- Generator: Adobe Illustrator 18.0.0, SVG Export Plug-In . SVG Version: 6.00 Build 0)  -->
<!DOCTYPE svg PUBLIC "-//W3C//DTD SVG 1.1//EN" "http://www.w3.org/Graphics/SVG/1.1/DTD/svg11.dtd">
<svg version="1.1" id="Layer_1" xmlns="http://www.w3.org/2000/svg" xmlns:xlink="http://www.w3.org/1999/xlink" x="0px" y="0px"
	 viewBox="0 0 100 150" enable-background="new 0 0 100 150" xml:space="preserve">
<rect x="0.1" y="-0.1" display="none" fill="#2980B9" width="99.8" height="150.3"/>
<circle fill="#2980BA" stroke="#FFFFFF" stroke-width="1.5" cx="50" cy="43.1" r="42.5"/>
<circle fill="#FFFFFF" cx="50.2" cy="45.1" r="39.5"/>
<ellipse fill="#FFFFFF" stroke="#FFFFFF" stroke-width="2.0824" cx="50.5" cy="68.6" rx="20.6" ry="22"/>
<g>
	<polygon fill="#1ABC9C" stroke="#FFFFFF" stroke-width="1.1829" points="54.2,58.3 44.9,63.7 35.5,58.3 35.5,47.5 44.9,42.1 
		54.2,47.5 	"/>
	<polygon fill="#1ABC9C" stroke="#FFFFFF" stroke-width="1.1829" points="35.5,58.3 26.1,63.7 16.8,58.3 16.8,47.5 26.1,42.1 
		35.5,47.5 	"/>
	<polygon fill="#1ABC9C" stroke="#FFFFFF" stroke-width="1.1829" points="63.6,42.1 54.2,47.5 44.9,42.1 44.9,31.3 54.2,25.8 
		63.6,31.3 	"/>
	<polygon fill="#1ABC9C" stroke="#FFFFFF" stroke-width="1.1829" points="63.6,42.1 63.6,31.3 73,25.8 82.3,31.3 82.3,42.1 	"/>
</g>
<g>
	<g>
		<path fill="none" stroke="#ADAFB1" stroke-width="0.232" d="M76.2,71.1c-14.4,14.4-37.7,14.4-52.1,0C9.7,56.8,9.7,33.4,24,19"/>
		<path fill="none" stroke="#ADAFB1" stroke-width="0.232" d="M76.2,71.1c-3.4,3.4-17.9-5.5-32.3-19.9C29.5,36.9,20.6,22.5,24,19"/>
		<path fill="none" stroke="#ADAFB1" stroke-width="0.232" d="M76.2,71.1c-14.4,14.4-37.7,14.4-52.1,0C9.7,56.8,9.7,33.4,24,19"/>
		<path fill="none" stroke="#ADAFB1" stroke-width="0.232" d="M76.2,71.1c-11,11-31.5,8.2-45.9-6.2C15.9,50.5,13.1,30,24,19"/>
		<path fill="none" stroke="#ADAFB1" stroke-width="0.232" d="M76.2,71.1c11-11,8.2-31.5-6.2-45.9C55.6,10.8,35,8.1,24,19"/>
		<path fill="none" stroke="#ADAFB1" stroke-width="0.232" d="M76.2,71.1c-3.4,3.4-17.9-5.5-32.3-19.9C29.5,36.9,20.6,22.5,24,19"/>
		<path fill="none" stroke="#ADAFB1" stroke-width="0.232" d="M76.2,71.1c14.4-14.4,14.4-37.7,0-52.1C61.8,4.6,38.4,4.6,24,19"/>
		<path fill="none" stroke="#ADAFB1" stroke-width="0.232" d="M76.2,71.1c3.4-3.4-5.5-17.9-19.9-32.3C41.9,24.5,27.5,15.6,24,19"/>
		<path fill="none" stroke="#ADAFB1" stroke-width="0.232" d="M76.2,19c3.4,3.4-5.5,17.9-19.9,32.3C41.9,65.7,27.5,74.6,24,71.1"/>
		<path fill="none" stroke="#ADAFB1" stroke-width="0.232" d="M76.2,19C66.2,9,46.4,12.6,32,27C17.6,41.4,14,61.1,24,71.1"/>
		<path fill="none" stroke="#ADAFB1" stroke-width="0.232" d="M76.2,19c10,10,6.5,29.8-7.9,44.2C53.8,77.6,34.1,81.2,24,71.1"/>
		<path fill="none" stroke="#ADAFB1" stroke-width="0.232" d="M76.2,19c-3.4-3.4-17.9,5.5-32.3,19.9C29.5,53.3,20.6,67.7,24,71.1"/>
	</g>
	<g>
		<path fill="none" stroke="#00749C" stroke-width="9.280784e-02" d="M76.2,71.1c-14.4,14.4-37.7,14.4-52.1,0
			C9.7,56.8,9.7,33.4,24,19"/>
		<path fill="none" stroke="#00749C" stroke-width="9.280784e-02" d="M76.2,71.1c-3.4,3.4-17.9-5.5-32.3-19.9
			C29.5,36.9,20.6,22.5,24,19"/>
		<path fill="none" stroke="#00749C" stroke-width="9.280784e-02" d="M76.2,71.1c-14.4,14.4-37.7,14.4-52.1,0
			C9.7,56.8,9.7,33.4,24,19"/>
		<path fill="none" stroke="#00749C" stroke-width="9.280784e-02" d="M76.2,71.1c-11,11-31.5,8.2-45.9-6.2C15.9,50.5,13.1,30,24,19"
			/>
		<path fill="none" stroke="#00749C" stroke-width="9.280784e-02" d="M76.2,71.1c11-11,8.2-31.5-6.2-45.9C55.6,10.8,35,8.1,24,19"/>
		<path fill="none" stroke="#00749C" stroke-width="9.280784e-02" d="M76.2,71.1c-3.4,3.4-17.9-5.5-32.3-19.9
			C29.5,36.9,20.6,22.5,24,19"/>
		<path fill="none" stroke="#00749C" stroke-width="9.280784e-02" d="M76.2,71.1c14.4-14.4,14.4-37.7,0-52.1
			C61.8,4.6,38.4,4.6,24,19"/>
		<path fill="none" stroke="#00749C" stroke-width="9.280784e-02" d="M76.2,71.1c3.4-3.4-5.5-17.9-19.9-32.3
			C41.9,24.5,27.5,15.6,24,19"/>
		<path fill="none" stroke="#00749C" stroke-width="9.280784e-02" d="M76.2,19c3.4,3.4-5.5,17.9-19.9,32.3
			C41.9,65.7,27.5,74.6,24,71.1"/>
		<path fill="none" stroke="#00749C" stroke-width="9.280784e-02" d="M76.2,19C66.2,9,46.4,12.6,32,27C17.6,41.4,14,61.1,24,71.1"/>
		<path fill="none" stroke="#00749C" stroke-width="9.280784e-02" d="M76.2,19c10,10,6.5,29.8-7.9,44.2C53.8,77.6,34.1,81.2,24,71.1
			"/>
		<path fill="none" stroke="#00749C" stroke-width="9.280784e-02" d="M76.2,19c-3.4-3.4-17.9,5.5-32.3,19.9
			C29.5,53.3,20.6,67.7,24,71.1"/>
	</g>
</g>
<g>
	<g>
		<path fill="#FFFFFF" d="M61.8,125c-0.4-2.8,0.8-11.8,2.7-14.6c10.3,0.7,27.5,5.6,30.5,8.4c3.1,2.8-6.5,24.8-19.1,29.7
			c0-2.1,2.3-7.3,3.8-10.5c1.4-3-0.2-10.5,4.6-14.3c2.3-0.3,0.1-1.8-3.8-1.1C75.8,123.6,64.9,126.8,61.8,125z"/>
		<g>
			<path fill="#FFFFFF" d="M63.3,125c-0.3-3.1,0.3-6.3,0.9-9.4c0.1-0.5,0.6-3.7,1.4-3.6c2,0.2,4.1,0.5,6.1,0.9c7,1.2,14.6,3,21,6.2
				c3.9,2-1.6,11.1-3,13.5c-3.3,6-8.1,11.9-14.6,14.6c0.8,0.4,1.5,0.9,2.3,1.3c0.5-4.6,3.9-8.4,4.4-12.9c0.3-2.8,0.4-5.6,1.5-8.2
				c0.8-1.8,2.2-2,3.2-3.4c0.3-0.4,0.3-1.1,0-1.5c-1.9-2.4-5.7-1.4-8.2-0.9c-4.3,1-11.5,4-15.8,2.2c-1.8-0.7-3.3,1.8-1.5,2.6
				c3.1,1.3,6.7,0.5,9.9,0c2.4-0.4,4.8-1,7.2-1.6c1.3-0.3,2.6-0.6,4-0.8c1.9,0.8,2.5,0.2,1.8-1.7c-0.3,0.1-0.5,0.2-0.7,0.4
				c-3.4,3.2-3.9,7.4-4.3,11.9c-0.4,4.9-4,9-4.5,14c-0.1,1.3,1.3,1.7,2.3,1.3c10.1-4.3,20-17.9,20.4-29.1c0.2-4.3-5.5-5.5-8.7-6.7
				c-7.7-2.7-15.9-4.5-24-5.2c-0.5,0-1.1,0.3-1.3,0.7c-2.4,4.3-3.3,10.5-2.9,15.4C60.5,127,63.5,127,63.3,125z"/>
		</g>
	</g>
	<g>
		<g>
			<path fill="#FFFFFF" d="M64.6,60.9c-2-1.7-4.2-1.9-6.3-1.1c0.6,4-0.1,6.4-0.7,10.1c1.6,1.4,2.6,2.1,3.9,4.3
				C65.5,70.7,69.9,65.3,64.6,60.9z"/>
			<g>
				<path fill="#FFFFFF" d="M65.4,59.6c-2.3-1.7-4.7-2.1-7.5-1.3c-0.6,0.2-1.2,0.8-1.1,1.4c0.4,3.3-0.1,6.4-0.6,9.7
					c-0.2,1,0.3,1.4,1,2c1.2,1,2.1,2.1,3,3.4c0.5,0.8,1.6,1,2.4,0.3c4.7-4.1,8.7-10.2,3.1-15.4c-1.4-1.3-3.5,0.8-2.1,2.1
					c4.2,3.9,0.2,8.2-3.1,11.1c0.8,0.1,1.6,0.2,2.4,0.3c-1.2-1.8-2.5-3.2-4.1-4.6c0.1,0.5,0.3,1,0.4,1.5c0.6-3.6,1.2-6.9,0.7-10.5
					c-0.4,0.5-0.7,1-1.1,1.4c2-0.6,3.5-0.3,5.2,1C65.4,63.3,66.9,60.7,65.4,59.6z"/>
			</g>
		</g>
	</g>
	<g>
		<g>
			<path fill="#FFFFFF" d="M54.9,70.6c3.6-10.3,2.1-27.2-5.1-33.1c-2.2-1.6-4.1,1.5-1.5,5.9c2.5,4.4,7.4,17.3-7.4,33.2
				c-3,3.3-4.5,9.1-1.9,11.3c0.5,1.7-2.1,0-3.1-1.1l-4.5-1.3c-0.2,3.1,2.7,7.4,6.3,7.6c6.1,0.4,16.8,1.1,14.3,12.9
				c-5.4,1.6-7,3.4-8.6,10.7c-1.5,6.5-4.8,18.3-4.8,20.9c-3.1,0-7.6-5.4-15.3-1.1c-10.1,5.6-25.9,8.9-19.3,9.7l39.2-0.1
				c4.1,0,8.2-6.3,10.2-11.4c2-5.2,6.6-19.6,7.7-24.4C67.3,85.8,66.9,78.5,54.9,70.6z"/>
			<g>
				<path fill="#FFFFFF" d="M56.4,71c2.8-8.8,2.7-19.1-0.8-27.7c-1-2.6-3.2-6.8-6.2-7.6c-3-0.8-3.9,2.5-3.8,4.7
					c0.2,3,2.6,5.9,3.4,8.8c1.2,4.5,0.5,9.2-0.9,13.5c-2.2,6.5-7.8,10.6-10.7,16.6c-0.9,1.8-1.2,3.8-1.2,5.8c0,1.2,1.3,2.5,1.3,3.4
					c0.5-0.5,1-1,1.5-1.5c-1.1,0.1-1.8-1.4-2.9-1.8c-1.4-0.4-2.8-0.8-4.2-1.3c-0.9-0.3-1.9,0.5-1.9,1.4c0.2,5.6,4.1,8.9,9.4,9.2
					c2.8,0.2,5.5,0.6,8,1.8c3,1.5,5.5,7.2,1.8,8.9c-5.5,2.5-6.5,7.7-7.8,13.1c-1.5,6.2-4,12.7-4.3,19.1c0.5-0.5,1-1,1.5-1.5
					c-4-0.4-6.7-3-11.1-2.6c-5,0.5-10.2,4.3-14.8,6.1c-0.7,0.3-16.2,5-10.6,7.7c3.5,1.7,9.6,0.4,13.3,0.4c7.6,0,15.3,0,22.9,0
					c5.8,0,9-0.5,12.9-5.7c5.7-7.6,7.9-19,10.4-28c2.6-9.2,5.7-19.6,4.7-29.3c-0.7-6.9-5.2-11.6-10.7-15.4c-1.6-1.1-3.1,1.5-1.5,2.6
					c5.4,3.7,9,7.9,9.4,14.6c0.5,8.5-2.4,17.5-4.5,25.7c-1.9,7.4-4.3,14.9-7.1,22.1c-1.3,3.5-4.6,10.3-9,10.3c-1.5,0-3,0-4.6,0
					c-10.9,0-21.8,0-32.8,0.1c-0.5,0-0.9,0-1.4,0c-0.8,0-1.1,1.9,0.6,1.1c3.6-1.7,7.6-2.8,11.3-4.3c4.6-1.8,9.5-5.7,14.6-5
					c2.8,0.4,5.1,2.3,7.9,2.6c0.8,0.1,1.5-0.8,1.5-1.5c0.3-5.3,2.3-10.7,3.6-15.8c1.6-6.2,1.9-12.1,8.7-14.3c0.5-0.2,1-0.5,1-1
					c0.9-5.1,0.1-9.6-4.6-12.4c-5.2-3.1-15.7-0.2-16-8.5c-0.6,0.5-1.3,1-1.9,1.4c1.4,0.4,2.8,0.8,4.2,1.3c1.3,0.4,2,2,3.7,1.9
					c0.9,0,1.5-0.7,1.5-1.5c0-0.7,0.1-1.2-0.4-1.7c-2.3-2.7,0.1-7,1.9-9.2c3-3.6,5.8-7,7.8-11.2c2.6-5.3,3.4-11.4,2.3-17.2
					c-0.3-1.8-1-3.5-1.7-5.1c-0.2-0.5-2.5-6.3-0.8-4.8c1.7,1.6,2.8,3.9,3.6,6c3,7.7,2.8,17.2,0.3,25C52.9,72,55.8,72.8,56.4,71z"/>
			</g>
		</g>
	</g>
</g>
<g>
	<path fill="#2980BA" d="M62.2,125.2c-0.4-2.8,0.8-11.7,2.6-14.5c9.9,0.7,26.4,5.5,29.3,8.3c2.9,2.8-6.2,24.6-18.3,29.5
		c0-2.1,2.2-7.2,3.7-10.4c1.4-3-0.2-10.4,4.4-14.2c2.2-0.3,0.1-1.8-3.7-1C75.7,123.8,65.2,127,62.2,125.2z"/>
	<g>
		<path fill="#2980BA" d="M64.9,61.6c-1.9-1.7-4.1-1.9-6.1-1.1c0.6,4-0.1,6.3-0.6,10c1.5,1.4,2.4,2.1,3.7,4.2
			C65.7,71.4,70,66,64.9,61.6z"/>
	</g>
	<g>
		<path fill="#2980BA" d="M55.6,71.2c3.4-10.3,2-27-4.9-32.8c-2.2-1.5-3.9,1.5-1.5,5.9c2.4,4.4,7.1,17.1-7.1,32.9
			c-2.9,3.3-4.3,9-1.8,11.2c0.5,1.7-2,0-2.9-1.1l-4.3-1.3c-0.2,3.1,2.6,7.4,6.1,7.6c5.9,0.4,16.2,1.1,13.7,12.8
			c-5.2,1.6-6.7,3.4-8.3,10.6c-1.4,6.5-4.6,18.2-4.6,20.7c-2.9,0-7.3-5.3-14.7-1.1c-9.7,5.6-24.9,8.9-18.5,9.6l37.6-0.1
			c3.9,0,7.8-6.2,9.8-11.4c2-5.1,6.4-19.4,7.3-24.2C67.5,86.3,67.1,79.1,55.6,71.2z"/>
	</g>
</g>
</svg>
