<svg id="Layer_1" data-name="Layer 1" xmlns="http://www.w3.org/2000/svg" viewBox="0 0 411 411"><defs><style>.cls-1{fill:#fff;stroke:#231f20;}.cls-2,.cls-9{fill:#696;}.cls-2,.cls-3,.cls-8{stroke:#696;}.cls-10,.cls-12,.cls-3,.cls-5,.cls-7,.cls-8{fill:none;}.cls-3,.cls-5,.cls-7{stroke-width:12px;}.cls-13,.cls-4{fill:#f26722;}.cls-12,.cls-4,.cls-5{stroke:#f26722;}.cls-11,.cls-6{fill:#016699;}.cls-10,.cls-6,.cls-7{stroke:#016699;}.cls-10,.cls-12,.cls-8{stroke-miterlimit:1;stroke-width:7px;}</style></defs><title>signaling-pathways-logo</title><circle class="cls-1" cx="205.5" cy="205.5" r="205"/><circle class="cls-2" cx="142.24" cy="165.92" r="45" transform="translate(-69.94 111.12) rotate(-35)"/><path class="cls-3" d="M142.5,165.71A99.94,99.94,0,0,0,233.4,57.38" transform="translate(-0.5 -0.47)"/><circle class="cls-4" cx="273.74" cy="161.9" r="45" transform="translate(-33.08 75.89) rotate(-15)"/><path class="cls-5" d="M273.84,162.22a99.94,99.94,0,0,0,70.71,122.48" transform="translate(-0.5 -0.47)"/><circle class="cls-6" cx="215.37" cy="271.28" r="45" transform="matrix(0.26, -0.97, 0.97, 0.26, -102.91, 408.63)"/><path class="cls-7" d="M215,271.21a99.94,99.94,0,0,0-141.42,0" transform="translate(-0.5 -0.47)"/><line class="cls-8" x1="231.95" y1="54.56" x2="231.57" y2="52.45"/><path class="cls-9" d="M222.14,37.89c-1.44,12-3.3,20-5.37,29.76l34.78-6.12a277.28,277.28,0,0,1-15.2-26.14c-5.83-11.55-10.3-22.17-12.46-29.18C224.25,13.53,223.68,25,222.14,37.89Z" transform="translate(-0.5 -0.47)"/><line class="cls-10" x1="69.07" y1="274.43" x2="67.61" y2="276"/><path class="cls-11" d="M62.07,293.45c10.45-6.07,17.94-9.37,27-13.62l-25.81-24.1A277.23,277.23,0,0,1,51.53,283.6C45.81,295.21,40,305.16,35.71,311.11,41.35,306.41,50.88,299.95,62.07,293.45Z" transform="translate(-0.5 -0.47)"/><line class="cls-12" x1="336.44" y1="282.83" x2="338.26" y2="283.96"/><path class="cls-13" d="M356.58,287.13c-8-9.1-12.62-15.83-18.52-23.91l-18.73,29.93a277.33,277.33,0,0,1,29.59,6.21c12.49,3.4,23.36,7.19,30,10.28C373.26,305,365.09,296.87,356.58,287.13Z" transform="translate(-0.5 -0.47)"/></svg>