<?xml version="1.0" encoding="utf-8"?>
<!-- Generator: Adobe Illustrator 18.1.1, SVG Export Plug-In . SVG Version: 6.00 Build 0)  -->
<!DOCTYPE svg PUBLIC "-//W3C//DTD SVG 1.1//EN" "http://www.w3.org/Graphics/SVG/1.1/DTD/svg11.dtd">
<svg version="1.1" id="Layer_1" xmlns="http://www.w3.org/2000/svg" xmlns:xlink="http://www.w3.org/1999/xlink" x="0px" y="0px"
	 viewBox="0 0 80 80" enable-background="new 0 0 80 80" xml:space="preserve">
<path stroke="#FFFFFF" stroke-width="4.6721" d="M71.4,10c-0.1-0.1-0.2-0.2-0.3-0.4C63.2,1,51.9-4.5,39.3-4.5
	c-10.2,0-19.6,3.6-27,9.7c-0.1,0.1-0.1,0.2-0.2,0.2C2.7,13.2-3.3,25-3.3,38.2c0,23.5,19.1,42.6,42.6,42.6c14.4,0,27.1-7.1,34.8-18.1
	c0.2-0.5,0.5-0.8,0.8-1.1c4.4-6.8,7-14.8,7-23.4C81.9,27.4,77.9,17.6,71.4,10z"/>
<circle fill="#ED1E24" stroke="#000000" stroke-width="1.168" cx="17.1" cy="23.6" r="8.1"/>
<path fill="#FFF200" stroke="#000000" stroke-width="1.168" d="M12.7,4.9C12.6,5,12.5,5,12.4,5.1c-0.2,0.3-0.5,0.5-0.9,0.5
	c-0.2,0.1-0.4,0.3-0.5,0.3c-0.1,0.3-0.3,0.5-0.6,0.8C10.1,6.9,9.8,7,9.5,7.2C9.4,7.4,9.3,7.6,9.1,7.8c-0.3,0.3-0.6,0.5-1,0.8
	C7.7,9.2,7,9.5,6.3,9.8c-0.5,1.4-1.4,2.5-2.8,3c-0.2,0.9-0.6,1.8-1.4,2.6c-0.2,0.2-0.4,0.4-0.5,0.5c1.2,0.7,2.6,1.1,4,1.1
	c4.5,0,8.1-3.6,8.1-8.1C13.8,7.4,13.3,6,12.7,4.9z"/>
<circle fill="#ED1E24" stroke="#000000" stroke-width="1.168" cx="39.1" cy="23.6" r="8.1"/>
<circle fill="#FFF200" stroke="#000000" stroke-width="1.168" cx="17.1" cy="44.8" r="8.1"/>
<circle fill="#00A651" stroke="#000000" stroke-width="1.168" cx="17.1" cy="64.7" r="8.1"/>
<circle fill="#00A651" stroke="#000000" stroke-width="1.168" cx="27.7" cy="5.2" r="8.1"/>
<circle fill="#ED1E24" stroke="#000000" stroke-width="1.168" cx="62.2" cy="23.6" r="8.1"/>
<circle fill="#00A651" stroke="#000000" stroke-width="1.168" cx="62.2" cy="44.8" r="8.1"/>
<circle fill="#ED1E24" stroke="#000000" stroke-width="1.168" cx="39.1" cy="44.8" r="8.1"/>
<circle fill="#FFF200" stroke="#000000" stroke-width="1.168" cx="50.7" cy="5.2" r="8.1"/>
<circle fill="#ED1E24" stroke="#000000" stroke-width="1.168" cx="39.4" cy="64.7" r="8.1"/>
<path fill="#00A651" stroke="#000000" stroke-width="1.168" d="M75,12.5c-0.3-0.3-0.4-0.6-0.4-1c-0.2,0-0.4,0-0.5,0
	c-0.1,0-0.1,0-0.2,0c-0.3-0.1-0.5-0.1-0.8-0.2c0,0-0.1,0-0.1-0.1c-0.5-0.2-1-0.5-1.4-0.8c0,0,0,0-0.1-0.1c-0.2-0.2-0.4-0.4-0.5-0.5
	c0,0,0,0,0-0.1c-0.5-0.6-0.8-1.4-1-2.2c-0.1,0-0.3-0.1-0.4-0.1c-0.7-0.3-1.3-0.6-1.7-1.1c-0.5-0.3-1-0.6-1.4-1.1
	c-0.5,1.1-0.8,2.3-0.8,3.6c0,4.5,3.6,8.1,8.1,8.1c1.2,0,2.2-0.3,3.2-0.6c-0.5-0.7-0.8-1.6-0.9-2.6C75.5,13.6,75.2,13.1,75,12.5z"/>
<circle fill="#FFF200" stroke="#000000" stroke-width="1.168" cx="62.2" cy="64.7" r="8.1"/>
<path fill="#FFF200" stroke="#000000" stroke-width="1.168" d="M80.8,38.9c0-0.1,0-0.2,0-0.3c-0.1-0.3-0.1-0.7,0-1.1
	c0-0.2,0-0.5,0.1-0.6c-0.2-0.2-0.3-0.5-0.3-1c0-0.3,0.1-0.6,0.1-0.9c-0.1-0.2-0.3-0.4-0.3-0.7c-0.1-0.4-0.1-0.8-0.2-1.3
	c-0.2-0.7-0.2-1.4,0-2.2c-0.9-1.1-1.3-2.5-1-4c-0.7-0.6-1.2-1.5-1.4-2.5c-0.1-0.3-0.1-0.5-0.1-0.7c-1.3,0.6-2.3,1.6-3.1,2.8
	c-2.4,3.8-1.3,8.8,2.5,11.2C78.1,38.5,79.5,38.8,80.8,38.9z"/>
<path fill="#00A651" stroke="#000000" stroke-width="1.168" d="M-1,31c0,0.4-0.3,0.7-0.5,0.9c0.1,0.1,0.2,0.3,0.3,0.4
	c0.1,0.1,0.1,0.1,0.1,0.1c0.1,0.3,0.3,0.5,0.4,0.7c0,0,0.1,0.1,0,0.1c0.2,0.5,0.3,1.1,0.2,1.6c0,0,0,0,0,0.1c0,0.3,0,0.5-0.1,0.8
	c0,0,0,0-0.1,0.1c-0.1,0.8-0.5,1.5-1.1,2.2c0.1,0.1,0.1,0.3,0.2,0.3c0.3,0.7,0.3,1.4,0.3,2c0.1,0.6,0.1,1.2,0,1.8
	c1.2-0.3,2.3-0.8,3.3-1.6c3.4-2.8,3.9-8,1.1-11.4c-0.8-0.9-1.6-1.5-2.5-2.1c-0.2,0.9-0.7,1.7-1.4,2.3C-0.5,29.9-0.6,30.5-1,31z"/>
<path fill="#FFFFFF" stroke="#FFFFFF" stroke-width="1.168" d="M74.9,8.4c-0.1-0.1-0.2-0.3-0.3-0.4C66.1-1.5,53.7-7.5,40-7.5
	c-11.2,0.1-21.5,4-29.6,10.6c-0.1,0.1-0.2,0.2-0.3,0.2C-0.2,11.8-6.7,24.7-6.7,39.1c0,25.7,20.9,46.6,46.6,46.6
	c15.8,0,29.6-7.8,38.1-19.8c0.2-0.5,0.5-0.9,0.8-1.3c4.8-7.4,7.7-16.1,7.7-25.5C86.6,27.3,82.1,16.6,74.9,8.4z M73.4,60.7
	c-0.3,0.4-0.5,0.7-0.7,1.1C65.3,72.2,53.2,79,39.6,79C17.3,79-0.8,60.9-0.8,38.6c0-12.5,5.7-23.7,14.6-31.1C13.9,7.4,14,7.4,14,7.3
	c6.9-5.7,15.9-9.1,25.5-9.1c11.9,0,22.7,5.2,30.1,13.4c0.1,0.1,0.2,0.2,0.3,0.3C76.2,18.9,80,28.2,80,38.6
	C80,46.8,77.6,54.3,73.4,60.7z"/>
</svg>
