<?xml version="1.0" encoding="utf-8"?>
<!-- Generator: Adobe Illustrator 18.1.1, SVG Export Plug-In . SVG Version: 6.00 Build 0)  -->
<!DOCTYPE svg PUBLIC "-//W3C//DTD SVG 1.1//EN" "http://www.w3.org/Graphics/SVG/1.1/DTD/svg11.dtd">
<svg version="1.1" id="Layer_1" xmlns="http://www.w3.org/2000/svg" xmlns:xlink="http://www.w3.org/1999/xlink" x="0px" y="0px"
	 viewBox="-4.3 31.6 87.2 87.7" enable-background="new -4.3 31.6 87.2 87.7" xml:space="preserve">
<path stroke="#FFFFFF" stroke-width="4.6721" d="M74,44.1c-0.1-0.1-0.2-0.2-0.3-0.4c-8.6-9.5-21-15.5-34.8-15.5
	c-11.2,0-21.5,4-29.6,10.6C9.2,38.9,9.2,39,9.1,39C-1.3,47.6-7.8,60.5-7.8,75c0,25.8,20.9,46.7,46.7,46.7c15.8,0,29.7-7.8,38.2-19.8
	c0.2-0.5,0.5-0.9,0.9-1.2c4.8-7.4,7.7-16.2,7.7-25.6C85.6,63.2,81.2,52.4,74,44.1z"/>
<circle fill="#ED1E24" stroke="#000000" stroke-width="1.168" cx="2" cy="64.5" r="8.9"/>
<circle fill="#00A651" stroke="#000000" stroke-width="1.168" cx="2" cy="86.3" r="8.9"/>
<path fill="#ED1E24" stroke="#000000" stroke-width="1.168" d="M2,99.2c-1.1,0-2.1,0.2-3.1,0.6c0.6,0.6,0.7,1.7,0.1,2.4
	c1,1.1,2,2.2,2.8,3.4c0.2,0.3,0.4,0.6,0.5,0.9c1.2,0,1.7,1,1.7,1.9l0,0c0.6,0.1,1,0.4,1.2,0.8c2.3,0.2,3.8,1.6,4.5,3.3
	c0.7-1.3,1.2-2.8,1.2-4.4C10.9,103.2,6.9,99.2,2,99.2z"/>
<path fill="#FFF200" stroke="#000000" stroke-width="1.168" d="M9.7,38.5c-0.1,0.1-0.2,0.1-0.3,0.2c-0.2,0.3-0.6,0.5-1,0.6
	c-0.2,0.1-0.4,0.3-0.6,0.3c-0.1,0.3-0.3,0.6-0.7,0.9c-0.3,0.2-0.6,0.3-0.9,0.5c-0.1,0.2-0.2,0.5-0.4,0.7c-0.3,0.3-0.7,0.6-1.1,0.9
	c-0.5,0.6-1.2,1-2,1.3c-0.5,1.5-1.5,2.7-3.1,3.3c-0.2,1-0.7,2-1.5,2.8c-0.2,0.2-0.4,0.4-0.6,0.5c1.3,0.8,2.8,1.2,4.4,1.2
	c4.9,0,8.9-4,8.9-8.9C10.9,41.2,10.4,39.7,9.7,38.5z"/>
<circle fill="#ED1E24" stroke="#000000" stroke-width="1.168" cx="26.1" cy="64.5" r="8.9"/>
<circle fill="#FFF200" stroke="#000000" stroke-width="1.168" cx="26.1" cy="86.3" r="8.9"/>
<circle fill="#00A651" stroke="#000000" stroke-width="1.168" cx="26.1" cy="108.1" r="8.9"/>
<circle fill="#00A651" stroke="#000000" stroke-width="1.168" cx="26.1" cy="42.7" r="8.9"/>
<circle fill="#ED1E24" stroke="#000000" stroke-width="1.168" cx="51.4" cy="64.5" r="8.9"/>
<circle fill="#00A651" stroke="#000000" stroke-width="1.168" cx="51.4" cy="86.3" r="8.9"/>
<circle fill="#ED1E24" stroke="#000000" stroke-width="1.168" cx="51.4" cy="108.1" r="8.9"/>
<circle fill="#ED1E24" stroke="#000000" stroke-width="1.168" cx="51.4" cy="42.7" r="8.9"/>
<path fill="#FFF200" stroke="#000000" stroke-width="1.168" d="M84.8,60.9c-1.4-3.1-4.5-5.3-8.1-5.3c-4.9,0-8.9,4-8.9,8.9
	s4,8.9,8.9,8.9c4.2,0,7.8-3,8.7-6.9C84.4,64.9,84.2,62.7,84.8,60.9z"/>
<circle fill="#ED1E24" stroke="#000000" stroke-width="1.168" cx="76.7" cy="86.3" r="8.9"/>
<path fill="#00A651" stroke="#000000" stroke-width="1.168" d="M72.2,109.5c1.5-1.5,2.7-3.3,4.2-4.7c0-2.1,0.9-4.2,2.8-5.2
	c-0.8-0.2-1.7-0.4-2.6-0.4c-4.9,0-8.9,4-8.9,8.9c0,1.3,0.3,2.6,0.8,3.8C69.9,111.2,71.2,110.6,72.2,109.5z"/>
<path fill="#ED1E24" stroke="#000000" stroke-width="1.168" d="M78,46.8c-0.3-0.3-0.4-0.7-0.4-1.1c-0.2,0-0.4,0-0.6,0
	c-0.1,0-0.1,0-0.2,0c-0.3-0.1-0.6-0.1-0.9-0.2c0,0-0.1,0-0.1-0.1c-0.6-0.2-1.1-0.5-1.5-0.9c0,0,0,0-0.1-0.1
	c-0.2-0.2-0.4-0.4-0.6-0.6c0,0,0,0,0-0.1c-0.6-0.7-0.9-1.5-1.1-2.4c-0.1,0-0.3-0.1-0.4-0.1c-0.8-0.3-1.4-0.7-1.9-1.2
	c-0.6-0.3-1.1-0.7-1.5-1.2c-0.6,1.2-0.9,2.5-0.9,3.9c0,4.9,4,8.9,8.9,8.9c1.3,0,2.4-0.3,3.5-0.7c-0.6-0.8-0.9-1.8-1-2.8
	C78.6,48,78.2,47.5,78,46.8z"/>
<path fill="#FFFFFF" stroke="#FFFFFF" stroke-width="1.168" d="M77.9,42.3c-0.1-0.1-0.2-0.3-0.3-0.4c-9.4-10.4-22.9-17-38-17
	C27.3,25,16,29.3,7.2,36.5c-0.1,0.1-0.2,0.2-0.3,0.2c-11.3,9.4-18.5,23.5-18.5,39.3c0,28.2,22.9,51.1,51.1,51.1
	c17.3,0,32.5-8.6,41.8-21.7c0.2-0.5,0.6-1,0.9-1.4c5.3-8.1,8.4-17.7,8.4-28C90.7,63.1,85.8,51.3,77.9,42.3z M76.2,99.7
	c-0.3,0.4-0.6,0.8-0.8,1.2c-8,11.4-21.3,18.8-36.2,18.8c-24.5,0-44.3-19.8-44.3-44.3c0-13.7,6.2-26,16-34.1c0.1-0.1,0.2-0.1,0.2-0.2
	c7.6-6.3,17.4-10,28-10c13.1,0,24.9,5.7,33,14.7c0.1,0.1,0.2,0.2,0.3,0.3c6.9,7.8,11.1,18,11.1,29.3C83.5,84.4,80.8,92.7,76.2,99.7z
	"/>
</svg>
